Coordinates
version=1
nRows=14
nColumns=40
inDegrees=yes

Units are S.I. units (second, meters, Newtons, ...)
Angles are in degrees.

endheader
time	pelvis_tilt	pelvis_list	pelvis_rotation	pelvis_tx	pelvis_ty	pelvis_tz	hip_flexion_r	hip_adduction_r	hip_rotation_r	knee_angle_r	knee_angle_r_beta	ankle_angle_r	subtalar_angle_r	mtp_angle_r	hip_flexion_l	hip_adduction_l	hip_rotation_l	knee_angle_l	knee_angle_l_beta	ankle_angle_l	subtalar_angle_l	mtp_angle_l	lumbar_extension	lumbar_bending	lumbar_rotation	arm_flex_r	arm_add_r	arm_rot_r	elbow_flex_r	pro_sup_r	wrist_flex_r	wrist_dev_r	arm_flex_l	arm_add_l	arm_rot_l	elbow_flex_l	pro_sup_l	wrist_flex_l	wrist_dev_l
     35.55214286	     -4.01857438	     -4.89030801	      8.74443353	      0.93139725	      0.91758426	      0.47695629	     -2.17124959	      4.97529543	    -18.99337810	     10.62636505	     10.62636505	     18.33142580	      2.56405833	     -3.58054481	     32.10235014	     -4.33617610	     -3.72774778	     17.74419363	     17.74419363	      2.47263424	     -8.13070696	      6.55093585	     -6.85114301	      6.19691633	      4.86924732	     45.85888578	    -18.04209190	    -11.19348725	     81.91855577	     44.88986705	      0.00000000	      0.00000000	    -14.90754821	     -6.58424804	      6.18474903	     23.07479675	     44.30302663	      0.00000000	      0.00000000
     35.56428571	     -4.02122160	     -4.88766073	      8.52327602	      0.93293188	      0.91640854	      0.47529107	     -2.64260137	      4.81027163	    -19.02019310	     11.04398611	     11.04398611	     19.33732749	      3.16909842	     -1.98598478	     31.68661985	     -4.17452198	     -2.91862660	     18.76713051	     18.76713051	      1.11786259	    -10.40432264	      5.52643142	     -6.59794690	      6.18570658	      5.39190024	     45.16417515	    -18.22842283	    -12.03230962	     83.47364197	     44.90930302	      0.00000000	      0.00000000	    -14.94613926	     -6.63375265	      6.24866792	     23.51913134	     44.40348881	      0.00000000	      0.00000000
     35.57642857	     -3.97288648	     -4.80973602	      8.25193863	      0.93462453	      0.91541717	      0.47368479	     -3.21908869	      4.60810237	    -18.74737662	     11.32124091	     11.32124091	     19.69409200	      3.21409456	     -2.00466627	     31.30332082	     -4.09800471	     -2.64944981	     19.98452747	     19.98452747	      0.79953900	    -11.45456831	      5.60807976	     -6.36988172	      6.07424010	      5.46103410	     44.91637372	    -18.07826209	    -12.04460510	     83.58686348	     44.90969569	      0.00000000	      0.00000000	    -14.97540435	     -6.59573026	      6.24029310	     23.53842511	     44.41715717	      0.00000000	      0.00000000
     35.58857143	     -3.92632515	     -4.66333285	      7.92508968	      0.93632116	      0.91468706	      0.47206161	     -3.76217792	      4.30099395	    -18.42090334	     11.66224118	     11.66224118	     19.97988655	      3.25159404	     -2.03270288	     30.87693367	     -3.97151542	     -2.46336504	     21.03528710	     21.03528710	      0.68965896	    -12.34606943	      5.62206315	     -6.15403827	      5.87633678	      5.53965395	     44.41502160	    -17.86185580	    -12.03100362	     83.62082483	     44.90853166	      0.00000000	      0.00000000	    -14.92164832	     -6.55948268	      6.21535494	     23.59686636	     44.42955591	      0.00000000	      0.00000000
     35.60071429	     -3.91655882	     -4.53112071	      7.61127746	      0.93797602	      0.91421628	      0.47025244	     -4.24106636	      3.97961830	    -18.06812382	     12.01552858	     12.01552858	     20.17497810	      3.29309196	     -2.08716090	     30.41725113	     -3.83257395	     -2.26306054	     21.81565456	     21.81565456	      0.89579727	    -12.96759774	      5.50612694	     -5.89760850	      5.77050811	      5.52868436	     43.86373215	    -17.63042380	    -11.98670140	     83.57595755	     44.90721530	      0.00000000	      0.00000000	    -14.68794376	     -6.47627267	      6.20515705	     23.70864056	     44.43863504	      0.00000000	      0.00000000
     35.61285714	     -3.79270868	     -4.40613411	      7.31581881	      0.93946352	      0.91405489	      0.46853002	     -4.62299580	      3.61735040	    -17.78818460	     12.77459210	     12.77459210	     20.36095802	      3.13371025	     -2.16453731	     30.08787344	     -3.70293175	     -1.94338376	     22.89396126	     22.89396126	      1.15593113	    -13.95765934	      5.37682182	     -5.86945267	      5.55206652	      5.54526616	     43.03494331	    -17.35701067	    -11.97420464	     83.50022715	     44.90749804	      0.00000000	      0.00000000	    -14.37712076	     -6.47959841	      6.16134172	     23.84260399	     44.45724419	      0.00000000	      0.00000000
     35.62500000	     -4.00936270	     -4.29515267	      7.00497001	      0.94040712	      0.91364408	      0.46659843	     -4.09577948	      3.05649856	    -17.40273940	     14.50584829	     14.50584829	     20.63662490	      2.46669535	     -2.33331474	     30.10716361	     -3.43245525	     -1.36115323	     23.76442556	     23.76442556	      1.50962400	    -15.37808774	      5.52206791	     -5.52596274	      5.40185190	      5.68507527	     42.15223316	    -17.38942178	    -12.32299102	     83.68578832	     44.91589354	      0.00000000	      0.00000000	    -13.81579405	     -6.48194877	      5.98988994	     24.06685440	     44.51639467	      0.00000000	      0.00000000
     35.63714286	     -3.84149189	     -4.16430491	      6.76776844	      0.94170669	      0.91433104	      0.46458782	     -4.31995949	      2.62352648	    -17.08301468	     15.57369287	     15.57369287	     20.58152377	      2.16575249	     -2.48260821	     29.58239096	     -3.28841634	     -1.21793262	     24.37551385	     24.37551385	      2.15523205	    -15.90148249	      5.34865654	     -5.57936690	      5.24321094	      5.58640293	     41.05067104	    -17.09587043	    -12.32616036	     83.48709671	     44.92030813	      0.00000000	      0.00000000	    -13.21987551	     -6.50574312	      5.92642510	     24.22370888	     44.54611626	      0.00000000	      0.00000000
     35.64928571	     -3.95937469	     -3.96924687	      6.46075821	      0.94241658	      0.91476719	      0.46251845	     -3.59949482	      1.90023171	    -16.62295558	     17.79542781	     17.79542781	     20.49913598	      1.22550043	     -3.09859951	     29.36530834	     -3.06639091	     -1.21065529	     24.90940289	     24.90940289	      2.88881224	    -16.35007548	      5.38085617	     -5.38689778	      5.03218148	      5.69699094	     39.87944155	    -17.04273991	    -12.57683625	     83.26078360	     44.93754384	      0.00000000	      0.00000000	    -12.31554458	     -6.50537334	      5.77119127	     24.34696755	     44.60908605	      0.00000000	      0.00000000
     35.66142857	     -3.92800385	     -3.82952534	      6.20906637	      0.94317750	      0.91572479	      0.46042866	     -3.10790464	      1.33319489	    -16.02018298	     19.72990861	     19.72990861	     19.45355370	     -0.15548974	     -5.57846641	     29.00626722	     -2.90775703	     -1.19138984	     25.47463711	     25.47463711	      4.18998603	    -16.48535887	      6.51975853	     -5.36701070	      4.85365879	      5.97148054	     38.25913950	    -16.98938821	    -13.32259248	     83.30316735	     44.98881166	      0.00000000	      0.00000000	    -10.90963460	     -6.40816356	      5.11108199	     23.66927523	     44.85044033	      0.00000000	      0.00000000
     35.67357143	     -3.81836420	     -3.66032009	      5.94205628	      0.94381397	      0.91693557	      0.45826214	     -2.36978977	      0.57313538	    -15.75699379	     22.36327155	     22.36327155	     18.95268072	     -0.94896938	     -6.32921053	     28.40067291	     -2.77089784	     -1.41592571	     25.70801364	     25.70801364	      4.89438200	    -16.58586498	      6.20599408	     -5.47449288	      4.68155228	      5.79116342	     37.04398500	    -16.73764374	    -13.15458989	     82.62047054	     45.00433911	      0.00000000	      0.00000000	     -9.94577269	     -6.45165409	      5.04542825	     23.97779951	     44.88856160	      0.00000000	      0.00000000
     35.68571429	     -3.75239280	     -3.49590933	      5.67545287	      0.94428623	      0.91814668	      0.45608012	     -1.31791488	     -0.23336894	    -15.40131044	     25.42189723	     25.42189723	     18.15569731	     -2.05801923	     -7.37500791	     27.77622300	     -2.62725148	     -1.68918227	     25.81093537	     25.81093537	      5.57313942	    -16.61604075	      5.93558135	     -5.52336956	      4.52585677	      5.64047759	     35.69224905	    -16.49919143	    -13.00272219	     81.74121825	     45.02597054	      0.00000000	      0.00000000	     -8.86268100	     -6.53557282	      4.98575744	     24.29025236	     44.92679896	      0.00000000	      0.00000000
     35.69785714	     -3.76679651	     -3.36435247	      5.38676482	      0.94448586	      0.91927325	      0.45402816	      0.06511396	     -1.03008659	    -14.96848672	     28.80577781	     28.80577781	     16.89458029	     -3.47306696	     -8.77667710	     27.18101018	     -2.52649906	     -2.01503048	     25.77285328	     25.77285328	      6.16859200	    -16.54070821	      5.69841542	     -5.51639567	      4.36370962	      5.52316311	     34.28514518	    -16.28329514	    -12.85068012	     80.65287076	     45.05463249	      0.00000000	      0.00000000	     -7.69281128	     -6.63291543	      4.92577138	     24.61171487	     44.96695598	      0.00000000	      0.00000000
     35.71000000	     -3.69070507	     -3.19183017	      5.09046414	      0.94463832	      0.92042055	      0.45200086	      1.52629988	     -1.88534258	    -14.51071173	     32.44059262	     32.44059262	     15.35081987	     -5.03666599	    -10.16301399	     26.45448290	     -2.40827139	     -2.45546899	     25.70192997	     25.70192997	      6.73742951	    -16.37668317	      5.42347654	     -5.61365183	      4.18750820	      5.36327824	     32.86186290	    -16.01724543	    -12.66462159	     79.50991467	     45.08308647	      0.00000000	      0.00000000	     -6.45377543	     -6.78796458	      4.87289316	     24.98712960	     45.00469638	      0.00000000	      0.00000000
